name Trialà11.sto
datacolumns 19
datarows 20
range 0.00000000 0.07600000
endheader

                time	     ground_force_vx	     ground_force_vy	     ground_force_vz	     ground_force_px	     ground_force_py	     ground_force_pz	     ground_force_vx	     ground_force_vy	     ground_force_vz	     ground_force_px	     ground_force_py	     ground_force_pz	     ground_torque_x	     ground_torque_y	     ground_torque_z	     ground_torque_x	     ground_torque_y	     ground_torque_z	
          0.00000000	         68.81806726	        262.48377017	         -6.02025273	          0.65167948	          0.00000000	          0.32501706	        -68.59925137	        283.09795160	         15.17438475	          1.36084079	          0.00000000	          0.19907845	        -86.45473854	         21.93059510	        171.15528050	        -53.96490206	        -44.18537970	        384.72172343	
          0.00400000	         72.77480758	        277.24323558	         -6.35551299	          0.65131873	          0.00000000	          0.32500162	        -72.69155364	        299.49878873	         16.02177816	          1.36149481	          0.00000000	          0.19940332	        -91.29646384	         23.25048381	        180.67780650	        -57.19605016	        -46.71184954	        407.20951561	
          0.00800000	         76.68658769	        291.88191738	         -6.68876242	          0.65100112	          0.00000000	          0.32498178	        -76.75485778	        315.73945216	         16.85641816	          1.36208622	          0.00000000	          0.19969744	        -96.09596243	         24.55779749	        190.12358050	        -60.39743569	        -49.20895899	        429.48129875	
          0.01200000	         80.51674584	        306.26309813	         -7.01663592	          0.65072157	          0.00000000	          0.32495857	        -80.75328638	        331.66865113	         17.67007586	          1.36262617	          0.00000000	          0.19996571	       -100.80856595	         25.83985576	        199.40404992	        -63.53994864	        -51.65345509	        451.33154873	
          0.01600000	         84.23034357	        320.25584327	         -7.33587382	          0.65047549	          0.00000000	          0.32493280	        -84.65256398	        347.14176074	         18.45489148	          1.36312474	          0.00000000	          0.20021266	       -105.39153390	         27.08451543	        208.43440112	        -66.59582275	        -54.02315564	        472.56391480	
          0.02000000	         87.79489970	        333.73773445	         -7.64339494	          0.65025881	          0.00000000	          0.32490518	        -88.42072482	        362.02382803	         19.20353673	          1.36359101	          0.00000000	          0.20044247	       -109.80494667	         28.28043077	        217.13533401	        -69.53921521	        -56.29740818	        492.99529852	
          0.02400000	         91.18103077	        346.59726049	         -7.93636279	          0.65006797	          0.00000000	          0.32487630	        -92.02872782	        376.19219830	         19.90935740	          1.36403317	          0.00000000	          0.20065897	       -114.01248675	         29.41728359	        225.43461391	        -72.34671091	        -58.45749055	        512.45941273	
          0.02800000	         94.36298076	        358.73580382	         -8.21224352	          0.64989985	         -0.00000000	          0.32484665	        -95.45096266	        389.53869277	         20.56649253	          1.36445853	         -0.00000000	          0.20086567	       -117.98208784	         30.48597705	        233.26835993	        -74.99773799	        -60.48694272	        530.80972701	
          0.03200000	         97.31903022	        370.06918622	         -8.46885465	          0.64975174	          0.00000000	          0.32481670	        -98.66563754	        401.97129685	         21.16996800	          1.36487372	          0.00000000	          0.20106582	       -121.68644002	         31.47878961	        240.58204626	        -77.47488687	        -62.37182371	        547.92174496	
          0.03600000	        100.03178055	        380.52875970	         -8.70440424	          0.64962129	          0.00000000	          0.32478685	       -101.65504521	        413.41534338	         21.71576367	          1.36528467	          0.00000000	          0.20126241	       -125.10334645	         32.38948717	        247.33120746	        -79.76412979	        -64.10089142	        563.69459197	
          0.04000000	        102.48831442	        390.06204676	         -8.91752029	          0.64950647	          0.00000000	          0.32475752	       -104.40570885	        423.81419518	         22.20085407	          1.36569675	          0.00000000	          0.20145819	       -128.21593270	         33.21339338	        253.48185029	        -81.85494198	        -65.66570581	        578.05192023	
          0.04400000	        104.68023738	        398.63294903	         -9.10727071	          0.64940550	          0.00000000	          0.32472913	       -106.90841327	        433.12944817	         22.62322376	          1.36611478	          0.00000000	          0.20165574	       -131.01271501	         33.94741909	        259.01058507	        -83.74032890	        -67.06065883	        590.94216069	
          0.04800000	        106.60360884	        406.22155555	         -9.27317379	          0.64931682	          0.00000000	          0.32470214	       -109.15813034	        441.34068966	         22.98185876	          1.36654311	          0.00000000	          0.20185743	       -133.48753734	         34.59005336	        263.90449705	        -85.41676662	        -68.28293584	        602.33816938	
          0.05200000	        108.25877343	        412.82359126	         -9.41519970	          0.64923905	          0.00000000	          0.32467704	       -111.15384980	        448.44485600	         23.27671632	          1.36698562	          0.00000000	          0.20206545	       -135.63939041	         35.14131907	        268.16078451	        -86.88406425	        -69.33241525	        612.23632908	
          0.05600000	        109.65010539	        418.44955279	         -9.53376283	          0.64917093	          0.00000000	          0.32465439	       -112.89832844	        454.45524081	         23.50867524	          1.36744573	          0.00000000	          0.20228182	       -137.47212756	         35.60269681	        271.78619480	        -88.14515893	        -70.21151404	        620.65517692	
          0.06000000	        110.78567982	        423.12358235	         -9.62970515	          0.64911132	          0.00000000	          0.32463482	       -114.39777163	        459.40020961	         23.67946983	          1.36792646	          0.00000000	          0.20250840	       -138.99409396	         35.97702098	        274.79629141	        -89.20585448	        -70.92498755	        627.63363429	
          0.06400000	        111.67688523	        426.88213201	         -9.70427032	          0.64905917	          0.00000000	          0.32461901	       -115.66146187	        463.32167854	         23.79161012	          1.36843032	          0.00000000	          0.20274684	       -140.21768562	         36.26835222	        277.21458663	        -90.07451552	        -71.47969262	        633.22891847	
          0.06800000	        112.33799211	        429.77246964	         -9.75906857	          0.64901345	          0.00000000	          0.32460774	       -116.70134859	        466.27341519	         23.84829151	          1.36895941	          0.00000000	          0.20299861	       -141.15885520	         36.48183018	        279.07157329	        -90.76172860	        -71.88432297	        637.51421574	
          0.07200000	        112.78569168	        431.85107632	         -9.79603258	          0.64897320	          0.00000000	          0.32460184	       -117.53161354	        468.31921804	         23.85329681	          1.36951530	          0.00000000	          0.20326496	       -141.83658043	         36.62351102	        280.40368808	        -91.27994179	        -72.14912579	        640.57619356	
          0.07600000	        113.03861856	        433.18198152	         -9.81736480	          0.64893748	          0.00000000	          0.32460220	       -118.16822475	        469.53102811	         23.81089332	          1.37009905	          0.00000000	          0.20354692	       -142.27231080	         36.70019380	        281.25223677	        -91.64309335	        -72.28560778	        642.51242525	
